{"title":"Burning Bright (2010) DVDRIp XviD-SKITTLES","uid":5770545,"size":737852317,"categoryP":"video","categoryS":"movies","magnet":"?xt=urn:btih:1f1252466f13befdca2c01eb7ec07fd3c7079796&amp;dn=Burning+Bright+%282010%29+DVDRIp+XviD-SKITTLES&amp;tr=udp%3A%2F%2Ftracker.openbittorrent.com%3A80&amp;tr=udp%3A%2F%2Fopen.demonii.com%3A1337&amp;tr=udp%3A%2F%2Ftracker.coppersurfer.tk%3A6969&amp;tr=udp%3A%2F%2Fexodus.desync.com%3A6969","seeders":0,"leechers":1,"uploader":"SkittlesRG","files":-1,"time":1282085652,"description":"[img]http://leetleech.org/images/55445462085055025725.jpg[/img]\n\n[b]Burning Bright (2010) DVDRip XviD-SKITTLES[/b]\n\n[img]http://leetleech.org/images/39185456263711143641.png[/img]\n\nVideo\nID                               : 0\nFormat                           : MPEG-4 Visual\nFormat profile                   : Advanced Simple@L5\nFormat settings, BVOP            : Yes\nFormat settings, QPel            : No\nFormat settings, GMC             : No warppoints\nFormat settings, Matrix          : Default (H.263)\nMuxing mode                      : Packed bitstream\nCodec ID                         : XVID\nCodec ID/Hint                    : XviD\nDuration                         : 1h 25mn\nBit rate                         : 1 011 Kbps\nWidth                            : 640 pixels\nHeight                           : 352 pixels\nDisplay aspect ratio             : 16:9\nFrame rate                       : 23.976 fps\nColor space                      : YUV\nChroma subsampling               : 4:2:0\nBit depth                        : 8 bits\nScan type                        : Progressive\nBits/(Pixel*Frame)               : 0.187\nStream size                      : 620 MiB (88%)\nWriting library                  : XviD 1.2.1 (UTC 2008-12-04)\n\nAudio\nID                               : 1\nFormat                           : MPEG Audio\nFormat version                   : Version 1\nFormat profile                   : Layer 3\nMode                             : Joint stereo\nMode extension                   : MS Stereo\nCodec ID                         : 55\nCodec ID/Hint                    : MP3\nDuration                         : 1h 25mn\nBit rate mode                    : Constant\nBit rate                         : 128 Kbps\nChannel(s)                       : 2 channels\nSampling rate                    : 48.0 KHz\nStream size                      : 78.4 MiB (11%)\nAlignment                        : Aligned on interleaves\nInterleave, duration             : 42 ms (1.00 video frame)\nInterleave, preload duration     : 504 ms\n &lt;a href=&quot;\nhttp://www.imdb.com/title/tt1244658/&quot; rel=&quot;nofollow&quot; target=&quot;_NEW&quot;&gt;\nhttp://www.imdb.com/title/tt1244658/&lt;/a&gt;\n\n[img]http://leetleech.org/images/46941880339015444838.png[/img]\n\nBriana Evigan\t\t\nGarret Dillahunt... \tJohnny Gavineau\nCharlie Tahan\t\t\nMeat Loaf\t... \tHowie\nPreston Bailey\t\t\nMary Rachel Dudley... \tCatherine\nPeggy Sheffield\t... \tDr. Orsi\n\n[img]http://leetleech.org/images/70187465700988366433.png[/img]\n\nGenre:\nDrama | Horror | Thriller\n\nPlot:\nA thriller centered on a young woman and her autistic little \nbrother who are trapped in a house with a ravenous tiger during \na hurricane.\n\n[img]http://leetleech.org/images/64476088802225496360.png[/img]\n\n[img]http://leetleech.org/images/57097903820410210214.png[/img]\n[img]http://leetleech.org/images/52976033333836158496.png[/img]\n[img]http://leetleech.org/images/23301804463746433982.png[/img]\n[img]http://leetleech.org/images/54683716739274738596.png[/img]\n[img]http://leetleech.org/images/60865635584511555517.png[/img]\n[img]http://leetleech.org/images/53578235879615054710.png[/img]","torrent":{"xt":"urn:btih:1f1252466f13befdca2c01eb7ec07fd3c7079796","amp;dn":"Burning+Bright+%282010%29+DVDRIp+XviD-SKITTLES","amp;tr":["udp%3A%2F%2Ftracker.openbittorrent.com%3A80","udp%3A%2F%2Fopen.demonii.com%3A1337","udp%3A%2F%2Ftracker.coppersurfer.tk%3A6969","udp%3A%2F%2Fexodus.desync.com%3A6969"],"infoHash":"1f1252466f13befdca2c01eb7ec07fd3c7079796","infoHashBuffer":{"type":"Buffer","data":[31,18,82,70,111,19,190,253,202,44,1,235,126,192,127,211,199,7,151,150]},"announce":[],"urlList":[]}}